<svg version="1.1" width="483.78" height="241.89" viewBox="0 0 128 64" xmlns="http://www.w3.org/2000/svg" xmlns:xlink="http://www.w3.org/1999/xlink" id="svg8" overflow="hidden"><defs id="defs2"><linearGradient id="linearGradient1865"><stop offset="0" stop-color="#2AD4FF" stop-opacity="1"/><stop offset="1" stop-color="#FF00FF" stop-opacity="1"/></linearGradient><linearGradient x1="95.5" y1="-55.5827" x2="275.5" y2="-236.583" gradientUnits="userSpaceOnUse" xlink:href="#linearGradient1865" id="linearGradient1867"></linearGradient><linearGradient x1="-688.368" y1="312.939" x2="-504.874" y2="126.617" gradientUnits="userSpaceOnUse" xlink:href="#linearGradient2176" id="linearGradient2178" gradientTransform="matrix(0.172702,0,0,0.172702,122.868,235.691)"></linearGradient><linearGradient id="linearGradient2176"><stop offset="0" stop-color="#0066FF" stop-opacity="1"/><stop offset="1" stop-color="#00CCFF" stop-opacity="1"/></linearGradient></defs><g id="layer1" transform="matrix(1,0,0,1,0,-233)"><g id="g2330"><path d=" M 36.5818 249.917 C 27.9301 249.917 20.9165 256.931 20.9166 265.582 C 20.9202 269.736 22.5729 273.717 25.5114 276.652 C 27.653 276.436 29.4579 274.927 30.0249 272.811 L 32.5463 273.486 C 31.9059 275.876 30.1917 277.76 28.0091 278.679 C 28.2283 278.821 28.451 278.957 28.677 279.088 C 29.8422 278.518 30.8596 277.689 31.6541 276.677 C 33.9649 276.616 35.9583 275.055 36.5596 272.811 L 39.0813 273.486 C 38.1654 276.905 35.0538 279.291 31.5151 279.291 L 31.5151 279.291 L 29.0086 279.291 C 31.3269 280.573 33.9326 281.246 36.5818 281.248 C 45.2337 281.248 52.2474 274.234 52.2474 265.582 C 52.2437 261.429 50.5908 257.447 47.6519 254.512 C 45.5089 254.727 43.7023 256.237 43.135 258.354 L 40.6137 257.678 C 41.2543 255.287 42.9698 253.403 45.1535 252.485 C 44.9344 252.343 44.7118 252.206 44.486 252.075 C 43.3196 252.645 42.3009 253.475 41.5058 254.488 C 39.195 254.548 37.2016 256.11 36.6004 258.354 L 34.0787 257.678 C 34.9945 254.26 38.1061 251.874 41.6448 251.874 L 41.6448 251.873 L 44.1557 251.873 C 41.8372 250.591 39.2313 249.918 36.5818 249.917 Z M 49.8873 251.873 C 49.1663 251.873 48.5818 252.458 48.5819 253.179 C 48.5819 253.179 48.5819 253.179 48.5819 253.179 C 48.5819 253.9 49.1663 254.484 49.8873 254.484 C 50.6082 254.484 51.1926 253.9 51.1927 253.179 C 51.1928 252.458 50.6084 251.874 49.8875 251.873 C 49.8874 251.873 49.8873 251.873 49.8873 251.873 Z M 34.079 257.678 L 36.6007 258.354 L 35.8883 261.013 L 39.7201 261.013 L 40.6137 257.678 L 43.1357 258.354 L 42.4233 261.013 L 47.2472 261.013 C 47.9681 261.013 48.5527 261.597 48.5529 262.318 C 48.5529 262.318 48.5529 262.318 48.5529 262.318 C 48.5528 263.039 47.9683 263.624 47.2473 263.624 C 47.2473 263.624 47.2472 263.624 47.2472 263.624 L 41.7237 263.624 L 40.674 267.54 L 45.4982 267.54 C 46.2191 267.54 46.8036 268.125 46.8036 268.846 C 46.8036 269.567 46.2191 270.151 45.4982 270.151 L 39.9745 270.151 L 39.0809 273.486 L 36.5592 272.81 L 37.2716 270.151 L 33.4398 270.151 L 32.5463 273.486 L 30.0242 272.81 L 30.7366 270.151 L 25.9165 270.151 C 25.1955 270.151 24.6109 269.567 24.6108 268.846 C 24.6108 268.846 24.6108 268.846 24.6108 268.846 C 24.6108 268.125 25.1953 267.54 25.9163 267.54 C 25.9164 267.54 25.9164 267.54 25.9165 267.54 L 31.4362 267.54 L 32.4859 263.624 L 27.6654 263.624 C 26.9445 263.624 26.3601 263.039 26.36 262.318 C 26.3601 261.598 26.9445 261.013 27.6654 261.013 L 33.1855 261.013 Z M 35.1887 263.624 L 34.1394 267.54 L 37.9712 267.54 L 39.0206 263.624 Z" id="path815-5-5" stroke="none" stroke-width="0.168706" stroke-miterlimit="4" stroke-dasharray="" stroke-opacity="1" fill="#000000" fill-opacity="1" opacity="1"/><g id="g1567" transform="matrix(1,0,0,1,23.1025,57.9402)"><g id="g1524" transform="matrix(1,0,0,1,8.32282,-14.4588)"><path d=" M 34.5926 221.362 L 30.4048 221.362 C 29.5764 221.361 28.9048 222.033 28.9046 222.861 C 28.9045 223.69 29.5762 224.361 30.4048 224.361 L 33.7885 224.361 L 32.7767 228.138 C 32.423 229.456 31.2434 230.361 29.8787 230.361 C 29.0505 230.362 28.3792 231.033 28.379 231.861 C 28.3789 232.689 29.0503 233.361 29.8787 233.361 C 29.9178 233.361 29.957 233.359 29.996 233.356 C 32.6554 233.304 34.9829 231.492 35.6737 228.914 L 35.6742 228.914 L 36.8943 224.362 L 37.8684 224.362 C 38.5744 223.021 39.7345 221.951 41.1395 221.362 L 37.6979 221.362 L 38.7805 217.323 C 39.1343 216.004 40.3124 215.1 41.6775 215.1 L 41.6775 215.1 L 41.678 215.1 C 42.5064 215.1 43.178 214.428 43.1782 213.6 C 43.1783 212.771 42.5066 212.1 41.678 212.1 L 41.6775 212.1 L 41.6754 212.1 C 41.6369 212.1 41.5985 212.102 41.5602 212.105 C 38.9007 212.157 36.5732 213.969 35.8825 216.547 Z M 73.2952 212.1 C 73.2546 212.1 73.2141 212.102 73.1737 212.106 C 70.5182 212.162 68.1953 213.972 67.5053 216.547 L 67.5059 216.547 L 66.2155 221.362 L 57.3236 221.362 C 54.6152 221.362 52.2301 223.193 51.5291 225.809 L 50.0098 231.473 L 50.0119 231.474 C 49.9773 231.6 49.9594 231.731 49.9587 231.861 C 49.9586 232.69 50.6303 233.362 51.4589 233.362 C 52.1371 233.361 52.7304 232.905 52.9058 232.25 L 52.9079 232.25 L 54.4256 226.586 C 54.7789 225.268 55.9586 224.362 57.3237 224.362 L 65.412 224.362 L 64.4002 228.138 C 64.0471 229.454 62.8697 230.359 61.5074 230.362 C 61.5055 230.362 61.504 230.362 61.5022 230.361 C 60.6736 230.361 60.0019 231.033 60.002 231.861 C 60.0019 232.69 60.6733 233.361 61.5017 233.362 L 61.5022 233.362 C 61.5412 233.361 61.5801 233.36 61.619 233.357 C 64.2785 233.304 66.6079 231.493 67.2987 228.915 L 67.2976 228.915 L 68.5172 224.362 L 72.934 224.362 C 73.7625 224.362 74.4342 223.69 74.4341 222.862 C 74.434 222.033 73.7623 221.362 72.934 221.362 L 69.3213 221.362 L 70.4034 217.324 L 70.4039 217.323 C 70.7572 216.004 71.9353 215.1 73.3004 215.1 L 73.3004 215.1 C 74.1267 215.097 74.795 214.426 74.7949 213.6 C 74.7947 212.772 74.1234 212.1 73.2952 212.1 Z M 60.0298 217.321 C 59.2015 217.321 58.5298 217.993 58.5296 218.821 C 58.5296 219.65 59.2013 220.321 60.0298 220.321 C 60.8582 220.321 61.5296 219.649 61.5295 218.821 C 61.5293 217.993 60.858 217.322 60.0298 217.321 Z M 43.6246 221.362 C 40.3287 221.362 37.6245 224.066 37.6245 227.362 C 37.6245 230.658 40.3287 233.361 43.6246 233.361 C 46.9206 233.361 49.6248 230.658 49.6248 227.362 C 49.6248 224.066 46.9206 221.362 43.6246 221.362 Z M 46.1097 221.362 C 47.5148 221.95 48.6749 223.021 49.3809 224.361 L 51.5657 224.361 C 52.276 223.002 53.4429 221.943 54.841 221.362 Z M 43.6246 224.361 C 45.2992 224.361 46.6244 225.687 46.6244 227.362 C 46.6244 229.036 45.2992 230.361 43.6246 230.361 C 41.95 230.361 40.6248 229.036 40.6248 227.362 C 40.6248 225.687 41.95 224.361 43.6246 224.361 Z M 56.6393 225.678 L 55.0864 231.473 L 55.0886 231.474 C 55.054 231.6 55.0361 231.73 55.0353 231.861 C 55.0352 232.69 55.7069 233.361 56.5355 233.361 C 57.2138 233.361 57.807 232.904 57.9824 232.249 L 57.9845 232.25 L 59.5374 226.454 L 59.7457 225.678 L 56.6399 225.678 Z" id="rect1244" stroke="none" stroke-width="0.5" stroke-miterlimit="4" stroke-dasharray="" stroke-opacity="1" fill="#000000" fill-opacity="1" opacity="1"/></g></g></g></g></svg>